<svg width="24" height="24" viewBox="0 0 24 24" fill="none" xmlns="http://www.w3.org/2000/svg">
  <!-- 脑部轮廓 -->
  <path d="M9 2C6.5 2 5 4 5 6.5C5 7.5 5.5 8.5 6 9C5.5 10 5 11 5 12C5 15 7 17 10 17H14C17 17 19 15 19 12C19 11 18.5 10 18 9C18.5 8.5 19 7.5 19 6.5C19 4 17.5 2 15 2C14 2 13 2.5 12 3C11 2.5 10 2 9 2Z" stroke="#374151" stroke-width="2" stroke-linecap="round" stroke-linejoin="round"/>
  
  <!-- AI 神经网络节点 -->
  <circle cx="9" cy="7" r="1.5" fill="#3B82F6"/>
  <circle cx="12" cy="9" r="1.5" fill="#3B82F6"/>
  <circle cx="15" cy="7" r="1.5" fill="#3B82F6"/>
  <circle cx="10" cy="12" r="1.5" fill="#3B82F6"/>
  <circle cx="14" cy="12" r="1.5" fill="#3B82F6"/>
  
  <!-- 连接线 -->
  <line x1="9" y1="7" x2="12" y2="9" stroke="#3B82F6" stroke-width="1"/>
  <line x1="15" y1="7" x2="12" y2="9" stroke="#3B82F6" stroke-width="1"/>
  <line x1="12" y1="9" x2="10" y2="12" stroke="#3B82F6" stroke-width="1"/>
  <line x1="12" y1="9" x2="14" y2="12" stroke="#3B82F6" stroke-width="1"/>
  
  <!-- 分析符号 -->
  <path d="M8 20C8 20 10 19 12 20C14 19 16 20 16 20" stroke="#374151" stroke-width="2" stroke-linecap="round"/>
  <circle cx="12" cy="22" r="1" fill="#374151"/>
</svg>