<svg width="24" height="24" viewBox="0 0 24 24" fill="none" xmlns="http://www.w3.org/2000/svg">
  <!-- 左侧对话气泡（正式） -->
  <path d="M2 6C2 4.5 3 3 4.5 3H8.5C10 3 11 4.5 11 6V9C11 10.5 10 11.5 8.5 11.5H5L2 14V6Z" fill="#3B82F6" opacity="0.2" stroke="#3B82F6" stroke-width="1.5"/>
  <text x="6.5" y="7.5" text-anchor="middle" font-size="6" fill="#3B82F6" font-weight="bold">formal</text>
  
  <!-- 右侧对话气泡（口语） -->
  <path d="M13 8C13 6.5 14 5.5 15.5 5.5H19.5C21 5.5 22 6.5 22 8V11C22 12.5 21 13.5 19.5 13.5H16L13 16V8Z" fill="#10B981" opacity="0.2" stroke="#10B981" stroke-width="1.5"/>
  <text x="17.5" y="10" text-anchor="middle" font-size="6" fill="#10B981" font-weight="bold">casual</text>
  
  <!-- 转换箭头 -->
  <path d="M11.5 9L12.5 9" stroke="#F59E0B" stroke-width="2" stroke-linecap="round"/>
  <path d="M12 8.5L12.5 9L12 9.5" stroke="#F59E0B" stroke-width="2" stroke-linecap="round"/>
  
  <!-- 人物头像轮廓（左） -->
  <circle cx="4" cy="19" r="2" stroke="#3B82F6" stroke-width="1.5" fill="none"/>
  <path d="M4 17.5C3.5 17.5 3 17.8 3 18.3V19.7C3 20.2 3.5 20.5 4 20.5C4.5 20.5 5 20.2 5 19.7V18.3C5 17.8 4.5 17.5 4 17.5Z" fill="#3B82F6"/>
  
  <!-- 人物头像轮廓（右） -->
  <circle cx="20" cy="19" r="2" stroke="#10B981" stroke-width="1.5" fill="none"/>
  <path d="M20 17.5C19.5 17.5 19 17.8 19 18.3V19.7C19 20.2 19.5 20.5 20 20.5C20.5 20.5 21 20.2 21 19.7V18.3C21 17.8 20.5 17.5 20 17.5Z" fill="#10B981"/>
  
  <!-- 音符装饰 -->
  <circle cx="8.5" cy="1.5" r="0.8" fill="#F59E0B"/>
  <path d="M8.5 1.5C8.5 1.5 9 2 9.5 1.5" stroke="#F59E0B" stroke-width="1" fill="none"/>
  
  <circle cx="15.5" cy="2.5" r="0.6" fill="#EF4444"/>
  <path d="M15.5 2.5C15.5 2.5 15.8 3 16.2 2.5" stroke="#EF4444" stroke-width="1" fill="none"/>
</svg>